<?xml version="1.0" encoding="utf-8"?>
<!-- Generator: Adobe Illustrator 21.1.0, SVG Export Plug-In . SVG Version: 6.00 Build 0)  -->
<svg version="1.1" id="Capa_1" xmlns="http://www.w3.org/2000/svg" xmlns:xlink="http://www.w3.org/1999/xlink" x="0px" y="0px"
	 viewBox="0 0 60 60" style="enable-background:new 0 0 60 60;" xml:space="preserve">
<style type="text/css">
	.st0{fill:#DCDCDC;}
	.st1{fill:#FFFFFF;}
</style>
<path class="st0" d="M39.4,21.1H16.6c-0.5,0-0.9,0.4-0.9,0.9s0.4,0.9,0.9,0.9h22.8c0.5,0,0.9-0.4,0.9-0.9
	C40.3,21.5,39.9,21.1,39.4,21.1z"/>
<path class="st1" d="M16.6,15.6h9.1c0.5,0,0.9-0.4,0.9-0.9s-0.4-0.9-0.9-0.9h-9.1c-0.5,0-0.9,0.4-0.9,0.9
	C15.6,15.2,16,15.6,16.6,15.6z"/>
<path class="st1" d="M39.4,28.4H16.6c-0.5,0-0.9,0.4-0.9,0.9s0.4,0.9,0.9,0.9h22.8c0.5,0,0.9-0.4,0.9-0.9
	C40.3,28.8,39.9,28.4,39.4,28.4z"/>
<path class="st0" d="M39.4,35.7H16.6c-0.5,0-0.9,0.4-0.9,0.9s0.4,0.9,0.9,0.9h22.8c0.5,0,0.9-0.4,0.9-0.9S39.9,35.7,39.4,35.7z"/>
<path class="st1" d="M39.4,43H16.6c-0.5,0-0.9,0.4-0.9,0.9s0.4,0.9,0.9,0.9h22.8c0.5,0,0.9-0.4,0.9-0.9S39.9,43,39.4,43z"/>
<path class="st1" d="M41.8,54H8.3V2.8h26.5v12.8h12.8v18.1h1.8V14.3L36.1,1H6.5v54.8h37.1L41.8,54z M36.7,4.1l9.7,9.7h-9.7V4.1z"/>
<g>
	<g>
		<path class="st1" d="M58.8,48c-0.1-0.2-0.3-0.3-0.5-0.3H53V35.5c0-0.3-0.2-0.5-0.5-0.5h-7.8c-0.3,0-0.5,0.2-0.5,0.5v12.3h-5.4
			c-0.2,0-0.4,0.1-0.5,0.3s0,0.4,0.1,0.5l9.8,9.8c0.1,0.1,0.2,0.1,0.3,0.1s0.3-0.1,0.3-0.1l9.8-9.8C58.8,48.4,58.9,48.2,58.8,48z"/>
	</g>
</g>
</svg>
