<?xml version="1.0" encoding="utf-8"?>
<!-- Generator: Adobe Illustrator 21.1.0, SVG Export Plug-In . SVG Version: 6.00 Build 0)  -->
<svg version="1.1" id="Capa_1" xmlns="http://www.w3.org/2000/svg" xmlns:xlink="http://www.w3.org/1999/xlink" x="0px" y="0px"
	 viewBox="0 0 512 512" style="enable-background:new 0 0 512 512;" xml:space="preserve">
<style type="text/css">
	.st0{fill:#FFFFFF;}
</style>
<g>
	<g>
		<path class="st0" d="M221.3,132.5v-20.8H201l7.4-29.3h-24.2l-7.2,29.3h-9.6l7.4-29.3h-24.2l-7.2,29.3h-23.5v20.8h18.4l-3.2,13.9
			h-23.4v22.4h17.9l-6.7,27.2H147l6.6-27.2h9.6l-6.7,27.2h24.2l6.6-27.2h25.9v-22.4h-20.5l3.2-13.9H221.3z M168.6,146.4H159
			l3.2-13.9h9.6L168.6,146.4z"/>
	</g>
</g>
<g>
	<g>
		<rect x="238.1" y="166.6" class="st0" width="30.4" height="29.4"/>
	</g>
</g>
<g>
	<g>
		<rect x="238.1" y="81.3" class="st0" width="30.4" height="66.7"/>
	</g>
</g>
<g>
	<g>
		<path class="st0" d="M374.9,169.3c3.1-5.2,5.5-11.1,7.4-17.7c1.8-6.6,2.8-13.9,2.9-22.2h-24.5c0,4.1-0.3,7.8-1,11.3
			c-0.6,3.5-1.5,6.7-2.7,9.7l-13.1-13.9c4.5-3.8,8.1-8.1,10.7-12.6c2.7-4.6,4-9.8,4-15.5c0-4.9-1-9.1-2.9-12.6
			c-1.9-3.5-4.5-6.3-7.6-8.5c-3.1-2.2-6.7-3.8-10.7-4.8c-4-1-8.1-1.5-12.2-1.5c-4.8,0-9.2,0.7-13.3,2c-4.1,1.3-7.5,3.2-10.5,5.7
			c-2.9,2.5-5.3,5.5-7,9.2c-1.7,3.7-2.6,7.8-2.6,12.4c0,3.9,0.7,7.5,2.1,10.8c1.4,3.3,3.8,7,7.2,11.1c-4.4,3.5-8.1,7.7-11.3,12.4
			c-3.1,4.7-4.7,10.4-4.7,16.9c0,4.4,0.9,8.7,2.6,13c1.7,4.3,4.2,8.2,7.6,11.6c3.4,3.4,7.5,6.2,12.5,8.3c5,2.1,10.7,3.2,17.4,3.2
			c5,0,10-0.6,15-1.9s9.7-3.3,14.3-6.1l6.1,6.4h39.8L374.9,169.3z M320.9,104.7c1-1.1,2.4-1.7,4.2-1.7c1.7,0,3.1,0.5,4.1,1.4
			c1,1,1.5,2.3,1.5,4.2c0,1.7-0.5,3.1-1.4,4.2c-1,1.1-2.5,2.4-4.6,3.9c-1.9-1.8-3.3-3.2-4.1-4.2c-0.8-1-1.2-2.2-1.2-3.6
			C319.4,107.3,319.9,105.9,320.9,104.7z M328.3,173.9c-2.6,0-4.7-0.4-6.6-1.3c-1.8-0.9-3.3-1.9-4.4-3.2s-1.9-2.6-2.4-4.1
			s-0.7-2.7-0.7-3.9c0-3,1.8-6,5.4-9l18.1,19.4C334.7,173.2,331.5,173.9,328.3,173.9z"/>
	</g>
</g>
<g>
	<g>
		<path class="st0" d="M512,290V0H0v290h161.5l-46,90h75.2l-78.2,132l297.8-181h-99.6l24.7-41H512z M257.8,361h45.4l-103.8,63
			l43.8-74h-78.8l46-90H30V30h452v230H318.5L257.8,361z"/>
	</g>
</g>
</svg>
