<?xml version="1.0" encoding="utf-8"?>
<!-- Generator: Adobe Illustrator 21.1.0, SVG Export Plug-In . SVG Version: 6.00 Build 0)  -->
<svg version="1.1" id="Capa_1" xmlns="http://www.w3.org/2000/svg" xmlns:xlink="http://www.w3.org/1999/xlink" x="0px" y="0px"
	 viewBox="0 0 268.8 268.8" style="enable-background:new 0 0 268.8 268.8;" xml:space="preserve">
<style type="text/css">
	.st0{fill:#DCDCDC;}
	.st1{fill:#FFFFFF;}
	.st2{fill:#B75C18;}
	.st3{fill:#FF9121;}
</style>
<rect x="12" y="14" class="st0" width="245" height="35"/>
<rect x="12" y="70" class="st1" width="52" height="53"/>
<rect x="76.3" y="70" class="st0" width="52" height="53"/>
<rect x="140.5" y="70" class="st1" width="52" height="53"/>
<rect x="204.8" y="70" class="st0" width="52" height="53"/>
<rect x="29" y="55.8" class="st1" width="79" height="8"/>
<circle class="st0" cx="18.5" cy="59.3" r="4.5"/>
<rect x="12" y="155.5" class="st1" width="52" height="53"/>
<rect x="29" y="141.3" class="st1" width="79" height="8"/>
<circle class="st0" cx="18.5" cy="144.8" r="4.5"/>
<g>
	<path class="st0" d="M246.4,160.2c-2.3,2.1-3.1,5.4-1.9,8.2c1.1,2.8,3.9,4.6,6.9,4.6c1.9,0,3.8,0.5,5.4,1.3v-18.8h-7.5
		C248.8,157.2,247.8,158.9,246.4,160.2z"/>
	<path class="st0" d="M204.8,196.4c0.8-1.8,1.3-3.8,1.3-5.9c0-2.1-0.5-4.1-1.3-6V196.4z"/>
	<path class="st0" d="M251.4,208h-0.5c-0.9,0-1.7,0.2-2.5,0.5h8.4v-1.7C255.2,207.7,253.3,208.1,251.4,208z"/>
	<path class="st2" d="M248.9,186.9c-7.7-0.9-14.4-5.8-17.4-13.1c-2.5-5.9-2-12.7,1-18.2h-27.8v9.7c9.1,4.8,15.3,14.3,15.3,25.3
		c-0.1,6.8-2.5,13.1-6.5,18h17.1c0.2-0.5,0.4-1,0.6-1.5c3-7.1,9.9-12.1,17.5-12.9C249,191.8,249,189.3,248.9,186.9z"/>
</g>
<g>
	<path class="st1" d="M176.9,190.5c0,8,6.5,14.6,14.6,14.6c0.3,0,0.7,0,1-0.1V176c-0.3,0-0.7-0.1-1-0.1
		C183.5,175.9,176.9,182.5,176.9,190.5z"/>
	<path class="st3" d="M162.9,190.5c0-15.8,12.8-28.6,28.6-28.6c0.3,0,0.7,0,1,0v-6.4h-41.8c2.9,5.5,3.3,12.2,0.8,18.1
		c-2.1,5-6,8.8-11,11v11.1c4.7,2.2,8.6,6.2,10.7,11.2c0.2,0.5,0.4,1,0.6,1.6h17.5C165.3,203.6,162.9,197.3,162.9,190.5z"/>
</g>
<path class="st0" d="M120.2,198.3c-0.7-5.3-0.7-10.8,0-16.3c0.5-4.6,3.8-8.1,8.1-9.1v-17.4h-52v53h52v-1.3
	C124.4,206.1,120.8,202.9,120.2,198.3z"/>
<g id="Settings">
	<g>
		<path class="st1" d="M256.1,183.3c-0.2-1.8-2.3-3.1-4.1-3.1c-5.9,0-11-3.4-13.2-8.8c-2.2-5.4-0.8-11.8,3.6-15.8
			c1.4-1.3,1.5-3.4,0.4-4.8c-3-3.8-6.4-7.2-10.1-10.2c-1.5-1.2-3.6-1-4.9,0.4c-3.8,4.2-10.6,5.8-15.9,3.6c-5.5-2.3-9-7.9-8.6-13.9
			c0.1-1.9-1.3-3.5-3.1-3.7c-4.8-0.6-9.6-0.6-14.4,0c-1.9,0.2-3.2,1.8-3.2,3.7c0.2,5.9-3.3,11.4-8.7,13.6c-5.2,2.1-12,0.6-15.8-3.6
			c-1.3-1.4-3.4-1.5-4.8-0.4c-3.8,3-7.3,6.4-10.3,10.2c-1.2,1.5-1,3.6,0.4,4.9c4.4,4,5.9,10.4,3.6,15.9c-2.2,5.2-7.7,8.6-13.9,8.6
			c-2-0.1-3.5,1.3-3.7,3.1c-0.6,4.8-0.6,9.7,0,14.5c0.2,1.8,2.4,3.1,4.2,3.1c5.6-0.1,10.9,3.3,13.1,8.8c2.2,5.4,0.8,11.8-3.6,15.8
			c-1.4,1.3-1.5,3.4-0.4,4.8c3,3.8,6.4,7.2,10.1,10.2c1.5,1.2,3.6,1,4.9-0.4c3.8-4.2,10.7-5.8,15.9-3.6c5.5,2.3,9,7.9,8.6,13.9
			c-0.1,1.9,1.3,3.5,3.1,3.7c2.4,0.3,4.9,0.4,7.4,0.4c2.3,0,4.7-0.1,7-0.4c1.9-0.2,3.2-1.8,3.2-3.7c-0.2-5.9,3.3-11.4,8.7-13.6
			c5.3-2.1,12-0.6,15.8,3.6c1.3,1.4,3.3,1.5,4.8,0.4c3.8-3,7.3-6.4,10.3-10.2c1.2-1.5,1-3.6-0.4-4.9c-4.4-4-5.9-10.4-3.6-15.9
			c2.2-5.2,7.4-8.7,13.1-8.7l0.8,0c1.8,0.1,3.5-1.3,3.7-3.1C256.6,193,256.6,188.1,256.1,183.3z M192.7,211.8
			c-11.7,0-21.3-9.6-21.3-21.3c0-11.7,9.6-21.3,21.3-21.3c11.7,0,21.3,9.6,21.3,21.3C214,202.3,204.5,211.8,192.7,211.8z"/>
	</g>
</g>
</svg>
