<svg xmlns="http://www.w3.org/2000/svg" viewBox="0 0 169.33 169.33"><defs><style>.cls-1{fill:#fff;}.cls-2{fill:#e96b00;}.cls-3{fill:#f09b60;}.cls-4{fill:#f3e32e;}</style></defs><title>logo_1</title><g id="Capa_2" data-name="Capa 2"><g id="Capa_1-2" data-name="Capa 1"><circle class="cls-1" cx="84.67" cy="84.67" r="84.67"/><path class="cls-2" d="M85.93,91.59a75.93,75.93,0,0,1,61.63,31.51A75.76,75.76,0,1,0,23,124.89,76,76,0,0,1,85.93,91.59Z"/><path class="cls-2" d="M149.71,77.26c-2.58-8.26-9.68-4.64-12.9-3.74S130,74.81,129.19,72s.13-4.26,4.39-5.93,4.39-3.61,5-5.42-.64-5.68-2-5.42-.72,3.35-2.53,3.35-5.16-1.42-7.1-1.29c-4.64.13-5.42-2.06-5.16-3.35,1.42-.77,1.94-3.61,1.94-7.48a40.4,40.4,0,0,1,.77-7.1c1.29,2.58,5.42,5.42,7.87,5.42s4.64-1.16,4.13-2.19a8.53,8.53,0,0,1-4.64-3.74c-2.71-7.48-5.68-7.61-7.22-7.74s-6.32,0-8.26,6.32-5.16,6.84-7.69,5.68-.69-9,0-12-5.55-5.93-6.19-5,2.19,2.84,1,4.26c-4.51,1.81-8.64,6.58-9.26,6.32s-1.84.65-3.39,0c1.81-2.58-4.13-8.39-5.93-9.8s-1.68-3.35-1.23-3.35a17.61,17.61,0,0,0,3.69.77c7.74,0,6.84-7,6.84-7-7.74,2.32-6.19-1.34-12.13-1.34s-7.48,4.57-7.48,7.15,1.29,5.8,2.19,9-1.42,5-2.45,5-2.58,1.55-5-3.74-5.68-5.93-6.58-5.93S58,27.85,57.34,30c6.32.13,3.48,4.52,3.1,5.55s-.13,4.26-.13,5.81S59,44,57.08,44s-3.74-1.81-8.51-1.42c-6.19.39-6.32-1.55-6.32-1.55S46,37.65,47,34.69c1-5.29-1.42-5.42-1.42-5.42C45.34,34,36.7,32.88,34,40c-1.81,4.64,2.84,8.64,6.06,9.8s7.22,2.45,6.06,7.1-6.32,0-11.87,0-6.58,7.22-5.8,7.61,2.06-2.58,3.22-2.19a8,8,0,0,1,3.87,3.87c.65,1.68,4,5.55,4,5.55a7.36,7.36,0,0,1-.39,2.84c-4.13-.52-10.06,7.22-11.61,8-3.74.77-2.19-1.42-1.55-4.12s-4.52-7.61-7-6.19c4.9,3.87-1.42,9.29-1.29,12.51s3.48,6.71,6.19,7.1,7.87-2.58,9.42-2.71,5.55-.26,6.32,2.71-3.1,4.64-3.1,4.64-5.55,2.84-6.84,5.16,1.29,6.71,2.58,7c-.39-.9.77-3.48,1.81-3.61s7,1.68,8.77,1.68,6.19.9,4.64,2.58a7.3,7.3,0,0,0-2.19,4.13c-.31,1.36,0,7.87-.13,8.39s-.13,3-1.94,2.84c-2.45-6.71-7.61-6.06-11.48-4.26,3,.13,5.42,4.39,6.06,6.84s2.32,4.9,6.58,5.81,6.58-3.1,8.9-7.1,3.23-7,6.77-5,.58,7,.07,10.71c-.77,4.64,5.42,7.35,6.06,6.71-3-3.61.77-5.68,1.94-6.19a18.07,18.07,0,0,0,4.9-4c.77-1.16,3.35-1,5.29-.52.77,5.29,7.87,10.19,7.87,10.71a19.25,19.25,0,0,1-.52,2.45s-1.16-.77-4.64-.9-6.45,4.9-5.68,7.1c.77-1.55,4.39-1.29,6.19-.9,4,2.06,7.22,2.71,11.09,0s1.16-9.29.13-12.9,0-6.45,1-6.71,4.64-1.16,6.45,3.48,4.13,5.42,6.71,6.06,4.64-1,4.52-2-2.32,0-3.1-2.39c-.52-1.42.64-4.52.64-6.19,0-3.87,1.29-6.19,2.71-6.19s4.64,1.55,8.26,1.42,7.61.77,7.48,1.81-3.1.77-4.64,3.35.26,9.42.9,8c2.32-4,5.42-5.42,6.71-5.68s4.51-4.52,5.16-5.55-.26-6.45-6.19-8.9-6.58-4.39-6.58-5.93a3.18,3.18,0,0,1,3.23-3.22c2.19-.13,6.32,1.81,8.39,1.81,3.48,0,7.35-5.42,5.8-7.35-4.51,4.13-6.71-2.71-7.48-3.87s-3.1-2.71-3.22-4.52,2.45-2.71,3.74-3.23,3.23-2.45,5-4.77a5.84,5.84,0,0,1,4.77-2.06s-1.16,3.23-.9,5.16c.64,6.19,6.58,5.68,6.58,5.68l-1-3.87c-.52-1.93,3.1-6.71,1.94-10.19M84.26,120.61a39,39,0,1,1,39-39,39,39,0,0,1-39,39"/><path class="cls-1" d="M123,81.87a39.16,39.16,0,0,1-32.63,38.61q-1.38.24-2.8.37c-1.23.12-2.47.18-3.73.18l-1.18,0q-1,0-2.07-.12a39.16,39.16,0,1,1,42.41-39"/><path class="cls-3" d="M83.83,62c2.16,0,4.89,1.15,8.06,1.15s7.92-.58,10.51-.58,8.35.72,8.35,7.2c0,5-4.61,9.21-10.37,9.21s-7.2-1.3-7.2-1.3-.86-.43,8.35-.43c2.45,0,7.66-3.49,7.66-7.21,0-3.13-6.45-4.78-9.28-4.78S88.2,67.13,88.2,72.5C88.2,75.82,94,80.41,94,84s-2.44,3.13-3.32,3.13-2.25-.49-2.83-.49c-1.56,0-1.86,1.27-3.42,1.27-3,0-2.83-1.56-4.79-1.56s-2.05.88-3.42.88-2.93-2.54-2.73-4.1c0-2.73,5.66-7.62,5.66-10.35s-3.91-6.74-10.84-6.74-9.18,4.39-9.18,6.15,2,6,9.18,6c3.42,0,6.44-1.24,7.13-.59s-4.3,2.05-7.23,2.05-10.35-1.46-10.35-7.52,2.73-8.89,8.5-8.89,6.74.68,8.11.68c3.42,0,6.17-1.9,9.4-1.9"/><path class="cls-3" d="M99.73,66.45c-4.8,0-10.55,2.82-10.55,5.86s4.39,4.2,10.55,4.2,8.4-3.65,8.4-6-5.18-4.1-8.4-4.1m-.2,9.18c-5.47,0-9.28-1.22-9.28-3.32s4.26-4.88,9.28-4.88c1.86,0,7.71.84,7.71,3.12s-2.25,5.08-7.71,5.08"/><path class="cls-3" d="M99.39,68.16c-5.91,0-8.5,2.6-8.5,4.05s4.3,2.49,8.5,2.49,7-1.86,7-3.81-4.83-2.73-7-2.73m0,5.61c-3.27,0-7-.83-7-1.76s1.12-3.08,7-3.08c2.44,0,5.91.88,5.91,2.15s-2.64,2.69-5.91,2.69"/><path class="cls-3" d="M98.9,70c2.39,0,4.78.73,4.83,1.39S101.63,73,98.9,73s-4.64-.78-4.64-1.51S96.53,70,98.9,70"/><path class="cls-3" d="M59.69,71.33c0,2.31,2.25,6,8.4,6s10.55-1.16,10.55-4.2-5.74-5.86-10.55-5.86c-3.22,0-8.4,1.79-8.4,4.1m.88,0c0-2.28,5.86-3.13,7.71-3.13,5,0,9.28,2.78,9.28,4.88s-3.81,3.32-9.28,3.32-7.71-2.8-7.71-5.08"/><path class="cls-3" d="M61.4,71.67c0,2,2.83,3.81,7,3.81s8.5-1,8.5-2.49-2.59-4.05-8.5-4.05c-2.2,0-7,.78-7,2.73m1.07.2c0-1.27,3.47-2.15,5.91-2.15,5.86,0,7,2.15,7,3.08s-3.71,1.76-7,1.76-5.91-1.42-5.91-2.69"/><path class="cls-3" d="M68.92,70.74c-2.39,0-4.78.73-4.83,1.39s2.1,1.68,4.83,1.68,4.64-.78,4.64-1.51-2.27-1.56-4.64-1.56"/><path class="cls-3" d="M87.13,60.78s20.51-.49,21.48.68.83,2.44.39,2.34a12.79,12.79,0,0,0-5.91-1.56c-3.86-.15-8.06.59-10.06.49s-6-.78-5.91-2"/><path class="cls-3" d="M80.83,61.27s-20.51-.49-21.48.68S58.52,64.4,59,64.3a12.81,12.81,0,0,1,5.91-1.56c3.86-.15,8.06.59,10.06.49s6-.78,5.91-2"/><path class="cls-3" d="M92.84,107.7s-1.8,9-2.2,11.82a3.15,3.15,0,0,1-.29,1q-1.38.24-2.8.37c.57-2.52,1.78-9.59,2.15-12.07.44-2.93-1-4-5.42-4s-5.52,1.86-5.22,4.15c.24,1.93,2.78,9.69,3.57,12.09q-1,0-2.07-.12c-1.26-2.88-4-9.3-5-12.46-1.27-4.15,1.61-6.54,9.18-6.54,11.87,0,8.05,5.81,8.05,5.81"/><path class="cls-3" d="M92.45,87.93c-2.49,0-5.26,1.24-8.62,1.24s-5.82-.52-8.1-.52-9.51.33-9.51,7.23,7.68,9.51,8.4,8.83-3.26-2.32-2.86-2.51,2,.33,2.86.33,6.51-1.89,9.74-1.89,7.45,1.17,8.49,1.27,4-.75,4.49-.29-3.65,1.82-2.54,2.93,8.2-3.32,8.2-9.9-8.07-6.71-10.56-6.71m2.82,11.85c-2.67,0-8.43-.59-11.77-.59s-8.87,1.11-10.63,1S69,98.1,69.06,96.37s-.29-4.66,6.67-4.66H83.5c4.67,0,9.75-.85,11.57-.65s5.66.2,5.66,4-2.8,4.75-5.47,4.75"/><path class="cls-3" d="M86.93,49A3.17,3.17,0,0,0,88,46.66c0-2-2.24-3.71-5-3.71s-5,1.66-5,3.71A3.17,3.17,0,0,0,79.13,49a5.67,5.67,0,0,0-3,4.83c0,3.24,3.09,5.86,6.9,5.86s6.9-2.62,6.9-5.86a5.67,5.67,0,0,0-3-4.83m-2.71-.49a1.56,1.56,0,0,0,.67-.15,2.28,2.28,0,1,1,0-2.85,1.56,1.56,0,0,0-.67-.15,1.58,1.58,0,0,0,0,3.16"/><path class="cls-3" d="M91.36,45c2.6,0,4,.91,4,1.63s-3.06,1.89-3.06,5.66,2.54,5.6,2.54,6.51-1.33.91-2.82.91-2.52-.33-2.52-1,1.82-2.08,1.82-6.31c0-2.73-2.67-3.45-2.57-4.75S88.63,45,91.36,45"/><path class="cls-3" d="M75.44,45c-2.6,0-4,.91-4,1.63s3.06,1.89,3.06,5.66-2.54,5.6-2.54,6.51,1.33.91,2.82.91,2.52-.33,2.52-1-1.82-2.08-1.82-6.31c0-2.73,2.67-3.45,2.57-4.75s.16-2.6-2.57-2.6"/><path class="cls-3" d="M98.9,47.18a5.73,5.73,0,1,0,5.73,5.73,5.73,5.73,0,0,0-5.73-5.73m1.19,8.14a2.39,2.39,0,0,0,1.26-.36,3.21,3.21,0,1,1,.45-3.76,2.41,2.41,0,1,0-1.7,4.11"/><path class="cls-3" d="M67.83,48a5.73,5.73,0,1,0,5.73,5.73A5.73,5.73,0,0,0,67.83,48M69,56.1a2.39,2.39,0,0,0,1.25-.36A3.21,3.21,0,1,1,70.72,52,2.41,2.41,0,1,0,69,56.1"/><path class="cls-3" d="M61.36,53.49l.94,5.22a.8.8,0,0,1-.81.94l-5.67-.18a.8.8,0,0,1-.64-1.23A20,20,0,0,1,60.12,53a.8.8,0,0,1,1.25.51"/><path class="cls-3" d="M107.59,52.38c1.28,1.18,3.32,3.1,4.64,4.55a.94.94,0,0,1-.59,1.57,51.13,51.13,0,0,1-5.85.17.94.94,0,0,1-.89-1.17L106,52.85a.94.94,0,0,1,1.55-.47"/><path class="cls-3" d="M86.43,111.55a17,17,0,0,0-2.71.2c-.8.08-1.66.25-1.81,1.19-.27,1.7,1.59,1.82,3.07,1.78a7.51,7.51,0,0,0,1.46-.06h0a3.11,3.11,0,0,0,.52-.13,1.54,1.54,0,0,0-.54-3"/><path class="cls-3" d="M87,115.84a20,20,0,0,1-3.19-.15,1,1,0,0,0-1,1,1.4,1.4,0,0,0,.84,1.12,6.74,6.74,0,0,0,3.26.07,1,1,0,0,0,.25-.09c1.07-.22,1-2-.18-1.93"/><path class="cls-3" d="M86.61,119.45a.94.94,0,0,0-.47-.71,1.61,1.61,0,0,0-1.67,0,1.4,1.4,0,0,0-.27.25.81.81,0,0,0-.13.17,1,1,0,0,0,.35,1.34,1.56,1.56,0,0,0,1.92-.27,1,1,0,0,0,.27-.82"/><path class="cls-3" d="M84.81,109.05a2,2,0,0,0-1.34-1.77.7.7,0,0,0-.38,0l-.08,0a1.63,1.63,0,0,0-1.86.74,1.75,1.75,0,0,0-.06,1.59,1.59,1.59,0,0,0,.85,1.29,2,2,0,0,0,1.28.19h.28a1.26,1.26,0,0,0,.9-.68,1.85,1.85,0,0,0,.41-1.27"/><path class="cls-3" d="M88.83,108.46a1.58,1.58,0,0,0-2.36-1l-.1.09a1.52,1.52,0,0,0-.32.13,1.66,1.66,0,0,0-.83,1.11,1.86,1.86,0,0,0,1.86,2.15,2.06,2.06,0,0,0,1.74-2.46"/><path class="cls-3" d="M112.51,63.64c-.29-1.22-2.17-.71-1.88.52a86.59,86.59,0,0,1,2.17,14.78c.07,1.25,2,1.26,2,0a89.72,89.72,0,0,0-2.24-15.3"/><path class="cls-3" d="M115.47,63.63c-.37-1.2-2.26-.69-1.88.52,1.44,4.68,1.77,9.94,2.23,14.8.12,1.24,2.07,1.25,2,0-.48-5-.81-10.48-2.3-15.31"/><path class="cls-3" d="M118,64c-.49-1.15-2.17-.16-1.69,1a31.64,31.64,0,0,1,2.4,14.53c-.08,1.25,1.87,1.25,2,0A33.73,33.73,0,0,0,118,64"/><path class="cls-3" d="M55.31,64.69c.29-1.22,2.17-.71,1.88.52A86.6,86.6,0,0,0,55,80c-.07,1.25-2,1.26-2,0a89.73,89.73,0,0,1,2.24-15.3"/><path class="cls-3" d="M52.36,64.67c.37-1.2,2.26-.69,1.88.52C52.8,69.87,52.48,75.13,52,80c-.12,1.24-2.07,1.25-2,0,.48-5,.81-10.48,2.3-15.31"/><path class="cls-3" d="M49.87,65c.49-1.15,2.17-.16,1.69,1a31.64,31.64,0,0,0-2.4,14.53c.08,1.26-1.87,1.25-2,0A33.73,33.73,0,0,1,49.87,65"/><path class="cls-3" d="M95.4,80.92c-.07-1.21,4.18-.58,6-1,5-.84,7.42-4.41,8.45-3.92s.83,3.5,0,4.43-4.05,2.25-4.05,4.55-.71,4.88-.49,5.42a5.28,5.28,0,0,1,1.07,3.22c-.1,1.81-1,2.91-1.54,2.77s-1.68-.43-1.34-3.65c0-.73-1-3.32-.88-4.78s.34-4-1.27-4.4-5.78.92-6-2.62"/><path class="cls-3" d="M95.4,84.61c.23-.89,3.6-.44,4.08-.44s2.46-.14,2.31,2-.74,2.51-1.28,2.46S98,87.49,97.19,87.49s-2.5-.15-1.79-2.88"/><path class="cls-3" d="M70,84.86c1-.54,2.15-1.12,2.88,0s1.51,3,.68,3.08a11,11,0,0,0-3.08.49c-.49.34-2.83,2.2-3.08.54s0-3.37.93-3.32A2.51,2.51,0,0,0,70,84.86"/><path class="cls-3" d="M72.05,80.06c-3.55.81-9.38,1-11.95-2.11a1.34,1.34,0,0,0-1.83.71A3.37,3.37,0,0,0,59.45,82a12.7,12.7,0,0,0,2,1.54,4.81,4.81,0,0,1,1,.85c0,2.68,2,5.19.72,7.88a1.05,1.05,0,0,0-.08.26,1,1,0,0,0,0,.29,6.07,6.07,0,0,0,.48,2.34,3.23,3.23,0,0,0,.54,1c.6.74,2-.06,1.63-.95a7.62,7.62,0,0,1-.46-1.35,5.27,5.27,0,0,1,.4-1.88l.14-.25c.36-.49.86-.62,1.08-1.26C67.29,89,66,88,65.87,86.67a1.83,1.83,0,0,1,1.56-2.22,18.14,18.14,0,0,0,1.84-.21,12.24,12.24,0,0,0,3.54-2.39,1,1,0,0,0-.75-1.78"/><path class="cls-3" d="M60.92,84.74c-1.35-1.88-3.72-2.43-5.92-2.42-6.48,0-7.87,5.73-7.86,11.18a1,1,0,0,0,2,0c0-4.27.58-9.21,5.91-9.23,2.13,0,4.06.54,4.87,2.7a15.84,15.84,0,0,1,.83,5.51,1,1,0,0,0,2,0c0-2.49-.23-5.64-1.73-7.73"/><path class="cls-3" d="M53.72,85.11c-5.25.75-4.6,8.31-3.52,11.93a1,1,0,0,0,1.88-.52C51.32,94,50.24,87.25,54.42,87s4.24,5.72,4.12,8.62c-.05,1.26,1.9,1.25,2,0,.19-4.43-.74-11.4-6.77-10.53"/><path class="cls-3" d="M57.3,90.47c-.44-.89-1-2.05-2.05-2.28a1.66,1.66,0,0,0-1,.1,1,1,0,0,0-.24.1c-2.24,1.34-2.53,4.42-1.9,6.76.5,1.86,2.46,4.44,4.37,2.47s2.06-4.66.82-7.15"/><path class="cls-3" d="M119.68,84.76C118.4,82.69,116.35,82.2,114,82c-5.43-.38-7.77,4.67-7.66,9.39a1,1,0,0,0,2,0c-.08-3.76,1.4-7.85,5.91-7.41,2,.2,3.44.73,4.24,2.73a15.36,15.36,0,0,1,.79,5.21c0,1.25,2,1.26,2,0-.09-2.44-.22-5.06-1.53-7.2"/><path class="cls-3" d="M115.41,85c-5-1.67-6.75,4.2-6.89,8,0,1.26,1.91,1.26,2,0a11.49,11.49,0,0,1,1-4.77,2.75,2.75,0,0,1,4.37-.66c1.81,1.75,1.52,5.91.76,8.07-.42,1.19,1.47,1.7,1.88.52,1.21-3.4,1.1-9.75-3.07-11.13"/><path class="cls-3" d="M116.54,90.09a4.3,4.3,0,0,0-.37-1.07.93.93,0,0,0-.34-.6.9.9,0,0,0-.86-.6c-4.18-.09-5.44,7.49-1.92,9.29,1.75.89,3-1.34,3.47-2.71a7,7,0,0,0,0-4.3"/><path class="cls-3" d="M105.73,98.37c-2.47,3.4-6.4,5.65-10.1,7.49-1.13.56-.14,2.25,1,1.69,4-2,8.11-4.5,10.8-8.19.74-1-1-2-1.69-1"/><path class="cls-3" d="M107.86,101.7c-1,.36-1.4,1-2.13,1.78a16.8,16.8,0,0,1-3.55,2.57c-2.81,1.67-5.74,3.12-8.64,4.61a.83.83,0,0,0-.49.83,1,1,0,0,0,1.21,1.18,22.41,22.41,0,0,0,8.49-3.55c2.42-1.64,4.93-3.26,6.21-6,.33-.7-.23-1.75-1.1-1.43"/><path class="cls-3" d="M74.49,106.72C70.72,105,66,103,64,99.12c-.56-1.12-2.25-.14-1.69,1,2.11,4.22,7.07,6.46,11.17,8.3,1.14.51,2.13-1.17,1-1.69"/><path class="cls-3" d="M76.22,111.72c-1.29-1.91-4.21-2.83-6.16-3.88a47.05,47.05,0,0,1-7.82-5.31,1,1,0,0,0-.39-.21.93.93,0,0,0-1.34.6c-.43,1.64.73,2.53,1.88,3.53a45.1,45.1,0,0,0,5,3.74,21.59,21.59,0,0,0,5.4,2.72c1.12.34,2.63.91,3.45-.19a1,1,0,0,0,0-1"/><path class="cls-3" d="M77.33,115.47c-.62-.75-1.66-.73-2.52-.91-1.12-.24-2-1.11-3.13-1.33a1,1,0,0,0-.39,0h0l-.15,0-.26.12a.86.86,0,0,0-.57.35,2.48,2.48,0,0,0-1,3c.43.89,1.8,1.16,2.63,1.48a9.11,9.11,0,0,0,3.72,1,2.42,2.42,0,0,0,1.71-3.78"/><path class="cls-3" d="M69.12,112.38c-.48-1.06-1.48-1.29-2.41-1.81s-1.76-1.38-2.95-.88l-.1.06a.9.9,0,0,0-.44.39l-.17.31a1.51,1.51,0,0,0-.16.21,1.42,1.42,0,0,0-.15.35l-.14.26v0a2.19,2.19,0,0,0,.19,2.49,2,2,0,0,0,1.24.61,5.47,5.47,0,0,1,1.55.71,2.49,2.49,0,0,0,2.82-.2,2.06,2.06,0,0,0,.73-2.52"/><path class="cls-3" d="M60.64,105.69a1,1,0,0,0-1.26,0,.83.83,0,0,0-.25.11c-1,.68-2.81,1.62-2.18,3.08a5.32,5.32,0,0,0,1.5,1.68,3.09,3.09,0,0,0,1.86.9,2.76,2.76,0,0,0,2.63-2.51c0-1.37-1.31-2.48-2.29-3.25"/><path class="cls-3" d="M99.08,113.32a1.4,1.4,0,0,0-1.35-.36,1,1,0,0,0-.61,0A10.15,10.15,0,0,0,94,114.5a2.37,2.37,0,0,0-1.21,2.14,2,2,0,0,0,1.81,2,6.3,6.3,0,0,0,3-1c.89-.42,1.82-.78,2.06-1.85a2.88,2.88,0,0,0-.6-2.47"/><path class="cls-3" d="M106.76,110.84a5.76,5.76,0,0,1-.74-1.16,1.57,1.57,0,0,0-.69-.84,1.86,1.86,0,0,0-2.11.43A18.2,18.2,0,0,1,100.4,111a2.08,2.08,0,0,0-.7.81,2.69,2.69,0,0,0,.55,2.31c.47.65.89,1.43,1.8,1.41a7.4,7.4,0,0,0,2.67-1,4.61,4.61,0,0,0,2-1.68,1.79,1.79,0,0,0,.05-2"/><path class="cls-3" d="M109.77,105.48c-1.54-.14-2.44,1.15-3.44,2.13a.87.87,0,0,0-.26.89s0,0,0,0v.15a1,1,0,0,0,.19.56.9.9,0,0,0,.1.21c.82,1.21,2,2,3.31,1.05a6.54,6.54,0,0,0,1.43-1.4c.36-.47,1-.78,1.13-1.39.42-1.51-1.32-2.14-2.47-2.24"/><path class="cls-3" d="M59.33,99.22a1,1,0,0,0-1-.84,1.71,1.71,0,0,0-.68.19,1.49,1.49,0,0,0-.49.49,1,1,0,0,0,.35,1.34,1.55,1.55,0,0,0,.91.23,1.05,1.05,0,0,0,.69-.29,1,1,0,0,0,.29-.69,1.09,1.09,0,0,0-.12-.42"/><path class="cls-3" d="M59.51,101.4a1.06,1.06,0,0,0-.38-.11,1.38,1.38,0,0,0-.46-.15,1.76,1.76,0,0,0-1.52.35,1.25,1.25,0,0,0,.29,1.9,1.72,1.72,0,0,0,2.42-.66,1,1,0,0,0-.35-1.34"/><path class="cls-3" d="M54.68,99.38a2.24,2.24,0,0,0-.87-.05,1.09,1.09,0,0,0-1,.94,1.15,1.15,0,0,0,.54,1.13,1.3,1.3,0,0,0,1.1.08,1.13,1.13,0,0,0,.51-.36.88.88,0,0,0,.38-.53,1,1,0,0,0-.68-1.2"/><path class="cls-3" d="M55.71,102.56c-.56-1-2-.7-2.9-.33a1,1,0,0,0,.12,1.73,1,1,0,0,0,.71.32,5.09,5.09,0,0,0,1.35,0,1.17,1.17,0,0,0,.73-1.68"/><path class="cls-3" d="M57.25,104.58a1,1,0,0,0,0,2,1,1,0,0,0,0-2"/><path class="cls-3" d="M111.81,97.18l-.05,0h0l-.14,0a1.88,1.88,0,0,0-2,.68,1.22,1.22,0,0,0,0,1.25,1.57,1.57,0,0,0,.91.66,1.66,1.66,0,0,0,2-.58,1.33,1.33,0,0,0-.7-1.94"/><path class="cls-3" d="M115.36,98a1.57,1.57,0,0,0-1-.14,1,1,0,0,0,.27,1.9,1,1,0,0,0,1.13-.42,1,1,0,0,0-.35-1.34"/><path class="cls-3" d="M112.78,100.66h-.09a.79.79,0,0,0-.21-.08,1.88,1.88,0,0,0-1.89.59,1.15,1.15,0,0,0,0,1.47,1.58,1.58,0,0,0,.91.43,1.77,1.77,0,0,0,1.94-.55,1.23,1.23,0,0,0-.71-1.86"/><path class="cls-3" d="M115.35,101.07a1,1,0,0,0,0,2,1,1,0,0,0,0-2"/><path class="cls-3" d="M74.5,94.09l0,0a1,1,0,0,0-.92-.7,3.62,3.62,0,0,0-2,.38,1,1,0,0,0,0,1.69,2.94,2.94,0,0,0,2.61,0,1,1,0,0,0,.35-1.34"/><path class="cls-3" d="M77.77,93.17a5.81,5.81,0,0,0-1.62-.06,1,1,0,0,0-1,1,3.25,3.25,0,0,0,.4,1.13,1.39,1.39,0,0,0,1,.34,2,2,0,0,0,1.76-.5,1.18,1.18,0,0,0-.56-1.88"/><path class="cls-3" d="M82.48,94.09c-.17-1.25-1.92-1.26-2.76-.77a1,1,0,0,0-.48.84,1,1,0,0,0,.69,1.13,5,5,0,0,0,1.37.11,1.19,1.19,0,0,0,1.18-1.31"/><path class="cls-3" d="M86.24,93.34A3.52,3.52,0,0,0,84,93.22a1,1,0,0,0,.07,1.9,1.1,1.1,0,0,0,.53.17,8.08,8.08,0,0,0,1.38,0,1,1,0,0,0,.26-1.92"/><path class="cls-3" d="M91.39,93a3.42,3.42,0,0,0-2.56,0,1,1,0,0,0,0,1.88,1,1,0,0,0,.58.21c.94,0,2,.1,2.41-1a1,1,0,0,0-.45-1.1"/><path class="cls-3" d="M94.95,92.62a10.71,10.71,0,0,0-1.17.07,1,1,0,0,0-1,.88.76.76,0,0,0,0,.1,1,1,0,0,0,.68,1.2c.85.34,2.42.29,2.66-.81a1.19,1.19,0,0,0-1.16-1.43"/><path class="cls-3" d="M98.93,93.29a1,1,0,0,0-.69-.29l-.14,0a1.1,1.1,0,0,0-.78.12,1.13,1.13,0,0,0-.49,1.44,1.22,1.22,0,0,0,1.44.68,1.33,1.33,0,0,0,.72-.54,1.56,1.56,0,0,0,.23-.75,1,1,0,0,0-.29-.69"/><path class="cls-3" d="M98.7,96.29a.89.89,0,0,0-.77-.28,1,1,0,0,0-.9.25,1.21,1.21,0,0,0,.67,2.07,1.19,1.19,0,0,0,1.18-.61,1.23,1.23,0,0,0-.19-1.44"/><path class="cls-3" d="M96.17,96.71a1.78,1.78,0,0,0-1.68-1.17A1.23,1.23,0,0,0,93,97a1.49,1.49,0,0,0,.27,1,1.36,1.36,0,0,0,1,.5,1.71,1.71,0,0,0,1.75-.82,1.27,1.27,0,0,0,.11-.47.75.75,0,0,0,0-.43"/><path class="cls-3" d="M90.9,95.72h-.07a1.28,1.28,0,0,0-.33-.08c-.83-.08-2,.2-2.21,1.13s.72,1.66,1.62,1.68,1.71.06,2.16-.76a1.32,1.32,0,0,0-1.17-2"/><path class="cls-3" d="M87.62,97.08a1,1,0,0,0-.71-1c-1-.38-3.52-.66-3.73.91-.24,1.77,2.5,1.4,3.52,1.32a1,1,0,0,0,1-1,.92.92,0,0,0,0-.28"/><polyline class="cls-4" points="80.95 96.64 80.95 96.64 80.95 96.63 80.95 96.64 80.95 96.64"/><path class="cls-3" d="M81.88,96.09a3.28,3.28,0,0,0-1.55,0,1.26,1.26,0,0,0-.88,1.67,1.58,1.58,0,0,0,1.4.86,2,2,0,0,0,1.39-.51.86.86,0,0,0,.28-.68.82.82,0,0,0,0-.11,1,1,0,0,0-.68-1.2"/><path class="cls-3" d="M78.29,96.66c-.86-.48-2.59-.73-2.92.55a1.29,1.29,0,0,0,.92,1.51,2.85,2.85,0,0,0,1.62,0,1,1,0,0,0,.65-.59l.08-.11a1,1,0,0,0-.35-1.34"/><path class="cls-3" d="M74.73,97.54a.84.84,0,0,0-.11-.25,1,1,0,0,0-.7-.81,2.23,2.23,0,0,0-1.71.09,1.26,1.26,0,0,0-.39,1.86,1.83,1.83,0,0,0,1.57.59,1.37,1.37,0,0,0,1-.32,1.15,1.15,0,0,0,.33-1.15"/><path class="cls-1" d="M150.91,77c-2.64-8.46-9.91-4.76-13.21-3.83s-7,1.32-7.8-1.59.13-4.36,4.49-6.08,4.49-3.7,5.15-5.55-.66-5.81-2-5.55-.74,3.44-2.59,3.44-5.29-1.45-7.27-1.32c-4.76.13-5.55-2.11-5.29-3.44,1.45-.79,2-3.7,2-7.66a41.38,41.38,0,0,1,.79-7.27c1.32,2.64,5.55,5.55,8.06,5.55s4.76-1.19,4.23-2.25a8.74,8.74,0,0,1-4.76-3.83c-2.77-7.66-5.81-7.8-7.4-7.93s-6.47,0-8.46,6.48-5.29,7-7.88,5.81-.71-9.25,0-12.29-5.68-6.08-6.34-5.15,2.25,2.91,1.06,4.36c-4.62,1.85-8.85,6.74-9.48,6.48s-1.88.66-3.47,0c1.85-2.64-4.23-8.59-6.08-10s-1.72-3.44-1.26-3.44a18,18,0,0,0,3.78.79c7.93,0,7-7.14,7-7.14-7.93,2.38-6.34-1.38-12.42-1.38S74,18.85,74,21.49s1.32,5.95,2.25,9.25-1.45,5.15-2.51,5.15-2.64,1.59-5.15-3.83S62.77,26,61.85,26s-4.89.4-5.55,2.64c6.47.13,3.57,4.62,3.17,5.68s-.13,4.36-.13,5.95S58,42.9,56,42.9,52.2,41,47.31,41.44c-6.34.4-6.47-1.59-6.47-1.59s3.83-3.44,4.89-6.47c1.06-5.42-1.45-5.55-1.45-5.55-.26,4.89-9.12,3.7-11.89,11-1.85,4.76,2.91,8.85,6.21,10s7.4,2.51,6.21,7.27-6.48,0-12.16,0-6.74,7.4-5.95,7.8,2.11-2.64,3.3-2.25a8.21,8.21,0,0,1,4,4c.66,1.72,4.1,5.68,4.1,5.68a7.54,7.54,0,0,1-.4,2.91c-4.23-.53-10.31,7.4-11.89,8.19-3.83.79-2.25-1.45-1.59-4.22s-4.62-7.8-7.14-6.34c5,4-1.45,9.51-1.32,12.82s3.57,6.87,6.34,7.27,8.06-2.64,9.65-2.78,5.68-.26,6.48,2.78S35,96.68,35,96.68s-5.68,2.91-7,5.29,1.32,6.87,2.64,7.14c-.4-.92.79-3.57,1.85-3.7s13.72-2.74,16-2.6c34,38.37,66.25,8.25,73.45-2.17,1.28-1.85,11.29,6.09,13.4,6.09,3.57,0,7.53-5.55,5.95-7.53-4.62,4.23-6.87-2.77-7.66-4s-3.17-2.77-3.3-4.62,2.51-2.78,3.83-3.3,3.3-2.51,5.15-4.89a6,6,0,0,1,4.89-2.11s-1.19,3.3-.92,5.29c.66,6.34,6.74,5.81,6.74,5.81l-1.06-4c-.53-2,3.17-6.87,2-10.44m-67,44.4a40,40,0,1,1,40-40,40,40,0,0,1-40,40"/><path class="cls-3" d="M28.54,138.16l5.93-4.63-6.22,1.14-.74-.95L30.12,128l-5.93,4.63-1.36-1.74,9-7,1.46,1.87-3,6.63,7.18-1.3,1.45,1.85-9,7Z"/><path class="cls-3" d="M35.48,144.94a4.66,4.66,0,0,1-1.19-1.43,4.11,4.11,0,0,1-.28-3.23,4.42,4.42,0,0,1,.81-1.47,4.67,4.67,0,0,1,1.31-1.11,4.12,4.12,0,0,1,1.57-.51,4.21,4.21,0,0,1,1.69.16,4.68,4.68,0,0,1,1.65.91,4.55,4.55,0,0,1,1.19,1.44,4.22,4.22,0,0,1,.46,1.61,4,4,0,0,1-.21,1.61,4.59,4.59,0,0,1-.81,1.45l-.26.3a1.67,1.67,0,0,1-.23.22l-5-4.13a2.48,2.48,0,0,0-.38.83,2.15,2.15,0,0,0,.23,1.58,2.26,2.26,0,0,0,.52.62,2.47,2.47,0,0,0,1.13.53,1.65,1.65,0,0,0,1.12-.14l1.09,1.57a3.74,3.74,0,0,1-2.15.27A4.59,4.59,0,0,1,35.48,144.94Zm4.9-2.51a2.23,2.23,0,0,0,.43-1.61A2.25,2.25,0,0,0,39.3,139a2.1,2.1,0,0,0-.78-.1,2.2,2.2,0,0,0-.78.2,2.31,2.31,0,0,0-.71.52Z"/><path class="cls-3" d="M48.6,145.93a4.23,4.23,0,0,0-1.68-.61,2.2,2.2,0,0,0-1.51.33L42.72,150l-1.82-1.14,4.44-7.11,1.67,1-.95,1.52a3.81,3.81,0,0,1,.86-.38,4.09,4.09,0,0,1,.87-.16,3.06,3.06,0,0,1,.81,0,2,2,0,0,1,.66.25l.22.14.13.1Z"/><path class="cls-3" d="M47.84,148.25a4.57,4.57,0,0,1,1-1.37,4,4,0,0,1,1.39-.86,4.28,4.28,0,0,1,1.66-.25,4.6,4.6,0,0,1,1.81.48,4.41,4.41,0,0,1,1.86,1.55,3.78,3.78,0,0,1,.63,2L54,149.49a1.89,1.89,0,0,0-.34-1,2,2,0,0,0-.79-.65,2,2,0,0,0-.86-.21,2.13,2.13,0,0,0-.85.16,2.36,2.36,0,0,0-.76.51,3,3,0,0,0-.59.85,2.86,2.86,0,0,0-.28,1,2.57,2.57,0,0,0,.08.93,2.07,2.07,0,0,0,.4.77,2,2,0,0,0,.68.53,2.06,2.06,0,0,0,1.08.2,1.62,1.62,0,0,0,.92-.34l1.61,1.48a3.52,3.52,0,0,1-2,.8,4.48,4.48,0,0,1-2.41-.48A4.61,4.61,0,0,1,48.45,153a4.17,4.17,0,0,1-1-3.1A4.49,4.49,0,0,1,47.84,148.25Z"/><path class="cls-3" d="M57.66,157.25a3.19,3.19,0,0,1-1-.55,2.73,2.73,0,0,1-.69-.82,2.6,2.6,0,0,1-.31-1,2.54,2.54,0,0,1,.13-1.07,2.32,2.32,0,0,1,.59-1,2.51,2.51,0,0,1,1-.58,3.65,3.65,0,0,1,1.24-.17,5,5,0,0,1,1.43.26,6.22,6.22,0,0,1,1,.43,4.47,4.47,0,0,1,.82.56l.15-.46a1.68,1.68,0,0,0,0-1.36,2,2,0,0,0-1.19-.86,3.69,3.69,0,0,0-1.32-.18,6.11,6.11,0,0,0-1.47.26l-.2-1.5a6.19,6.19,0,0,1,3.65.07,4.09,4.09,0,0,1,2.39,1.72,3.25,3.25,0,0,1,.15,2.75l-.82,2.48a.75.75,0,0,0,0,.49.53.53,0,0,0,.32.28l-.57,1.73a4.75,4.75,0,0,1-.93-.19,1.43,1.43,0,0,1-.8-.55,1.17,1.17,0,0,1-.16-.81l.1-.46a3.72,3.72,0,0,1-1.64.64A3.92,3.92,0,0,1,57.66,157.25Zm1.07-1.3a2.8,2.8,0,0,0,1,.14,1.87,1.87,0,0,0,.88-.25.77.77,0,0,0,.52-.47l.3-.91a5.21,5.21,0,0,0-.72-.48,4.49,4.49,0,0,0-.79-.35,2.3,2.3,0,0,0-1.41-.07,1.13,1.13,0,0,0-.8.74,1.14,1.14,0,0,0,.11,1A1.51,1.51,0,0,0,58.73,156Z"/><path class="cls-3" d="M68.55,160.21A3.79,3.79,0,0,1,66,158.43a4.34,4.34,0,0,1-.55-1.52,4.81,4.81,0,0,1,0-1.73,5,5,0,0,1,.6-1.61,4.45,4.45,0,0,1,1-1.21,3.58,3.58,0,0,1,1.34-.69,3.38,3.38,0,0,1,1.54,0,3.18,3.18,0,0,1,1.56.76,3.24,3.24,0,0,1,.92,1.37l.9-4.68,2.1.41-1.74,9a.79.79,0,0,0,0,.49.49.49,0,0,0,.35.23L73.71,161a4.79,4.79,0,0,1-.92-.06,1.49,1.49,0,0,1-.87-.46,1.06,1.06,0,0,1-.27-.82l.05-.53a3,3,0,0,1-1.46.95A3.58,3.58,0,0,1,68.55,160.21Zm.9-1.69a2,2,0,0,0,.63,0,2.17,2.17,0,0,0,.64-.18,2.59,2.59,0,0,0,.56-.35,1.87,1.87,0,0,0,.43-.49l.38-2a2.35,2.35,0,0,0-.23-.7,2.66,2.66,0,0,0-.42-.6,2.73,2.73,0,0,0-.55-.46,1.79,1.79,0,0,0-.61-.25,1.92,1.92,0,0,0-.91,0,2.1,2.1,0,0,0-.79.43,2.71,2.71,0,0,0-.6.72,2.92,2.92,0,0,0-.34.91,2.64,2.64,0,0,0,0,1,2.54,2.54,0,0,0,.32.86,2.19,2.19,0,0,0,.61.66A2.25,2.25,0,0,0,69.44,158.53Z"/><path class="cls-3" d="M80.09,161.73a4.61,4.61,0,0,1-1.81-.47,4.13,4.13,0,0,1-1.32-1,4.2,4.2,0,0,1-.78-1.44,4.66,4.66,0,0,1,.21-3.3,4.2,4.2,0,0,1,1-1.33,4.12,4.12,0,0,1,1.44-.86,4.6,4.6,0,0,1,1.86-.23,4.53,4.53,0,0,1,1.81.47,4.15,4.15,0,0,1,1.31,1,4.21,4.21,0,0,1,.78,1.44,4.67,4.67,0,0,1-.21,3.31,4.27,4.27,0,0,1-1,1.33,4,4,0,0,1-1.43.86A4.58,4.58,0,0,1,80.09,161.73Zm-1.91-4.47a2.91,2.91,0,0,0,.1,1,2.48,2.48,0,0,0,.41.82,2.09,2.09,0,0,0,.66.56,2.07,2.07,0,0,0,2.45-.37,2.46,2.46,0,0,0,.51-.77,3,3,0,0,0,.23-1,2.94,2.94,0,0,0-.1-1,2.47,2.47,0,0,0-.41-.83,2.08,2.08,0,0,0-.66-.56,2,2,0,0,0-.85-.24,2,2,0,0,0-.87.14,2.18,2.18,0,0,0-.73.48,2.46,2.46,0,0,0-.51.77A2.94,2.94,0,0,0,78.18,157.26Z"/><path class="cls-3" d="M94.5,161.46a3.78,3.78,0,0,1-3-.94,4.34,4.34,0,0,1-1-1.28,4.84,4.84,0,0,1-.48-1.66,5,5,0,0,1,.09-1.72,4.44,4.44,0,0,1,.62-1.45,3.58,3.58,0,0,1,1.07-1.05,3.4,3.4,0,0,1,1.46-.5,3.19,3.19,0,0,1,1.71.26,3.26,3.26,0,0,1,1.28,1l-.53-4.74,2.13-.24,1,9.16a.79.79,0,0,0,.16.46.49.49,0,0,0,.4.12l.2,1.81a4.92,4.92,0,0,1-.89.21,1.48,1.48,0,0,1-1-.18,1.06,1.06,0,0,1-.5-.7l-.11-.52a3,3,0,0,1-1.11,1.34A3.57,3.57,0,0,1,94.5,161.46Zm.35-1.87a2,2,0,0,0,.61-.17A2.2,2.2,0,0,0,96,159a2.6,2.6,0,0,0,.44-.5,1.86,1.86,0,0,0,.26-.59l-.22-2a2.37,2.37,0,0,0-.43-.6,2.67,2.67,0,0,0-.58-.45,2.76,2.76,0,0,0-.66-.27,1.76,1.76,0,0,0-.66-.05,1.92,1.92,0,0,0-.86.31,2.11,2.11,0,0,0-.63.64,2.74,2.74,0,0,0-.35.87,2.92,2.92,0,0,0-.05,1,2.64,2.64,0,0,0,.28,1,2.52,2.52,0,0,0,.56.73,2.18,2.18,0,0,0,.78.44A2.24,2.24,0,0,0,94.85,159.58Z"/><path class="cls-3" d="M106,159.43a4.65,4.65,0,0,1-1.85.11,4.11,4.11,0,0,1-2.77-1.69,4.41,4.41,0,0,1-.7-1.52,4.66,4.66,0,0,1-.11-1.71,4.11,4.11,0,0,1,.52-1.56,4.2,4.2,0,0,1,1.13-1.26,4.66,4.66,0,0,1,1.71-.79,4.54,4.54,0,0,1,1.86-.1,4.21,4.21,0,0,1,1.56.58,4,4,0,0,1,1.17,1.13,4.58,4.58,0,0,1,.68,1.51q.05.2.09.39a1.64,1.64,0,0,1,0,.32L103,156.4a2.48,2.48,0,0,0,.45.79,2.15,2.15,0,0,0,1.41.75,2.28,2.28,0,0,0,.81-.05,2.47,2.47,0,0,0,1.1-.6,1.65,1.65,0,0,0,.55-1l1.91,0a3.74,3.74,0,0,1-1.05,1.89A4.58,4.58,0,0,1,106,159.43Zm.88-5.43a2.23,2.23,0,0,0-1-1.3,2.24,2.24,0,0,0-2.34.16,2.1,2.1,0,0,0-.54.57,2.2,2.2,0,0,0-.3.75,2.31,2.31,0,0,0,0,.88Z"/><path class="cls-3" d="M108.12,146.5l2-.74,3.1,8.44a1.06,1.06,0,0,0,.46.6.81.81,0,0,0,.69,0,1.58,1.58,0,0,0,.38-.21,2.77,2.77,0,0,0,.36-.3l.83,1.43a4.14,4.14,0,0,1-.84.65,5.51,5.51,0,0,1-.94.46,2.15,2.15,0,0,1-1.65,0,2,2,0,0,1-1-1.24Z"/><path class="cls-3" d="M122.94,143.07a2.7,2.7,0,0,0-.51-.06,5,5,0,0,0-.81,0,6.4,6.4,0,0,0-1,.19,4,4,0,0,0-.94.39,2.26,2.26,0,0,0-1,1,1.11,1.11,0,0,0,.08,1,1,1,0,0,0,.44.42,1.45,1.45,0,0,0,.63.11,4.12,4.12,0,0,0,.86-.13l1.13-.3q.83-.22,1.55-.34a4.09,4.09,0,0,1,1.32,0,2.64,2.64,0,0,1,1.09.43,3.06,3.06,0,0,1,.88,1,3.29,3.29,0,0,1,.48,1.52,2.89,2.89,0,0,1-.28,1.37,4,4,0,0,1-.87,1.18,6.77,6.77,0,0,1-1.29,1,8.58,8.58,0,0,1-2.38.93,7.79,7.79,0,0,1-2.48.18l-.11-2.14a3,3,0,0,0,.64.07,7.86,7.86,0,0,0,1,0,6.88,6.88,0,0,0,1.18-.23,5.12,5.12,0,0,0,1.19-.5q1.58-.91,1-1.92a1,1,0,0,0-.49-.44,1.76,1.76,0,0,0-.74-.09,5.62,5.62,0,0,0-1,.16l-1.23.3a10.39,10.39,0,0,1-1.47.29,3.72,3.72,0,0,1-1.18,0,2.33,2.33,0,0,1-.94-.42,2.88,2.88,0,0,1-.74-.88,3.53,3.53,0,0,1-.49-1.49,3.1,3.1,0,0,1,.21-1.41,4,4,0,0,1,.8-1.25,5.47,5.47,0,0,1,1.28-1,6.27,6.27,0,0,1,2.1-.78,8.27,8.27,0,0,1,2-.11Z"/><path class="cls-3" d="M134.57,144.73a5.17,5.17,0,0,1-2,1.13,5.56,5.56,0,0,1-2.17.18,6,6,0,0,1-3.78-2,5.7,5.7,0,0,1-1.12-1.91,6,6,0,0,1-.34-2.15,5.57,5.57,0,0,1,.48-2.12,5.26,5.26,0,0,1,1.36-1.83,5,5,0,0,1,2-1.11,5.62,5.62,0,0,1,2.18-.16,6.08,6.08,0,0,1,2.07.65,5.84,5.84,0,0,1,1.7,1.32,5.74,5.74,0,0,1,1.12,1.9,5.89,5.89,0,0,1,.34,2.13,5.53,5.53,0,0,1-.48,2.11A5.25,5.25,0,0,1,134.57,144.73Zm-6.28-2.14a4.54,4.54,0,0,0,1.11.92,3.79,3.79,0,0,0,1.29.48,3.22,3.22,0,0,0,1.34-.05,3.23,3.23,0,0,0,2.11-1.87,3.23,3.23,0,0,0,.2-1.34,3.89,3.89,0,0,0-.33-1.34,4.56,4.56,0,0,0-.75-1.18,4.41,4.41,0,0,0-1.12-.91,3.94,3.94,0,0,0-1.3-.48,3.13,3.13,0,0,0-1.34.06,3.24,3.24,0,0,0-2.1,1.87,3.16,3.16,0,0,0-.21,1.34,3.88,3.88,0,0,0,.33,1.33A4.56,4.56,0,0,0,128.28,142.6Z"/><path class="cls-3" d="M140.73,138.45l-9.15-6.73,1.31-1.78,7.59,5.58,3.43-4.67,1.56,1.15Z"/></g></g></svg>