<svg xmlns="http://www.w3.org/2000/svg" viewBox="0 0 65.44 65.29"><defs><style>.cls-1{fill:#f09b60;}.cls-2{fill:#fff;}.cls-3{fill:#e96b00;}.cls-4{fill:#f3e32e;}</style></defs><title>logo-site</title><g id="Capa_2" data-name="Capa 2"><g id="Capa_1-2" data-name="Capa 1"><path class="cls-1" d="M65.33,30.36c-1.28-4.09-4.79-2.3-6.39-1.85s-3.38.64-3.77-.77.06-2.11,2.17-2.94a3.39,3.39,0,0,0,2.49-2.68c.32-.89-.32-2.81-1-2.68s-.36,1.66-1.25,1.66-2.55-.7-3.51-.64c-2.3.06-2.68-1-2.55-1.66.7-.38,1-1.79,1-3.7a20,20,0,0,1,.38-3.51,5.66,5.66,0,0,0,3.9,2.68c1.21,0,2.3-.57,2-1.09a4.22,4.22,0,0,1-2.3-1.85c-1.34-3.7-2.81-3.77-3.58-3.83s-3.13,0-4.09,3.13S46.3,14,45,13.44,44.7,9,45,7.5,42.27,4.56,42,5s1.09,1.4.51,2.11c-2.23.89-4.28,3.26-4.58,3.13s-.91.32-1.68,0c.89-1.28-2-4.15-2.94-4.85s-.83-1.66-.61-1.66a8.72,8.72,0,0,0,1.82.38A3,3,0,0,0,37.87.66C34,1.81,34.8,0,31.87,0a3.45,3.45,0,0,0-3.7,3.54A19.62,19.62,0,0,0,29.25,8,1.85,1.85,0,0,1,28,10.5c-.51,0-1.28.77-2.49-1.85s-2.81-2.94-3.26-2.94S19.92,5.9,19.61,7c3.13.06,1.72,2.23,1.53,2.75a13.94,13.94,0,0,0-.06,2.87c0,.77-.64,1.28-1.6,1.28s-1.85-.89-4.21-.7c-3.07.19-3.13-.77-3.13-.77A10,10,0,0,0,14.5,9.29c.51-2.62-.7-2.68-.7-2.68C13.67,9,9.39,8.39,8,11.9c-.89,2.3,1.4,4.28,3,4.85s3.58,1.21,3,3.51-3.13,0-5.88,0S4.92,23.85,5.3,24s1-1.28,1.6-1.09a4,4,0,0,1,1.92,1.92,16.3,16.3,0,0,0,2,2.75A3.65,3.65,0,0,1,10.6,29c-2-.26-5,3.58-5.75,4-1.85.38-1.09-.7-.77-2S1.85,27.17.64,27.87c2.43,1.92-.7,4.6-.64,6.19a4.19,4.19,0,0,0,3.07,3.51c1.34.19,3.9-1.28,4.66-1.34s2.75-.13,3.13,1.34-1.53,2.3-1.53,2.3-2.75,1.4-3.38,2.55.64,3.32,1.28,3.45c-.19-.45.38-1.72.89-1.79s3.45.83,4.34.83,3.07.45,2.3,1.28a3.61,3.61,0,0,0-1.09,2c-.15.67,0,3.9-.06,4.15s-.06,1.47-1,1.4c-1.21-3.32-3.77-3-5.68-2.11,1.47.06,2.68,2.17,3,3.38a3.85,3.85,0,0,0,3.26,2.87c2.11.45,3.26-1.53,4.41-3.51S19.22,51,21,51.94s.29,3.45,0,5.3c-.38,2.3,2.68,3.64,3,3.32-1.47-1.79.38-2.81,1-3.07a9,9,0,0,0,2.43-2c.38-.57,1.66-.51,2.62-.26.38,2.62,3.9,5,3.9,5.3a9.53,9.53,0,0,1-.26,1.21,4.91,4.91,0,0,0-2.3-.45c-1.72-.06-3.19,2.43-2.81,3.51.38-.77,2.17-.64,3.07-.45,2,1,3.58,1.34,5.49,0s.57-4.6.06-6.39,0-3.19.51-3.32a2.46,2.46,0,0,1,3.19,1.72,4.09,4.09,0,0,0,3.32,3c1.28.32,2.3-.51,2.24-1s-1.15,0-1.53-1.18c-.26-.7.32-2.23.32-3.07,0-1.92.64-3.07,1.34-3.07s2.3.77,4.09.7,3.77.38,3.7.89-1.53.38-2.3,1.66.13,4.66.45,4a5.62,5.62,0,0,1,3.32-2.81c.64-.13,2.23-2.23,2.55-2.75s-.13-3.19-3.07-4.41S52,46.2,52,45.43a1.57,1.57,0,0,1,1.6-1.6c1.09-.06,3.13.89,4.15.89,1.72,0,3.64-2.68,2.87-3.64-2.23,2-3.32-1.34-3.7-1.92s-1.53-1.34-1.6-2.23,1.21-1.34,1.85-1.6A8.15,8.15,0,0,0,59.71,33a2.89,2.89,0,0,1,2.36-1,7.22,7.22,0,0,0-.45,2.55,3,3,0,0,0,3.26,2.81l-.51-1.92c-.26-1,1.53-3.32,1-5M32.93,51.82A19.33,19.33,0,1,1,52.26,32.49,19.33,19.33,0,0,1,32.93,51.82"/><path class="cls-2" d="M52.1,32.64A19.38,19.38,0,0,1,36,51.76q-.68.12-1.38.18C34,52,33.34,52,32.72,52h-.59l-1-.06a19.38,19.38,0,1,1,21-19.32"/><path class="cls-3" d="M32.72,22.81c1.07,0,2.42.57,4,.57s3.92-.29,5.2-.29S46,23.45,46,26.66a4.88,4.88,0,0,1-5.13,4.56c-2.85,0-3.56-.64-3.56-.64s-.43-.21,4.13-.21c1.21,0,3.79-1.73,3.79-3.57,0-1.55-3.19-2.37-4.59-2.37s-5.8.92-5.8,3.58c0,1.64,2.85,3.92,2.85,5.7s-1.21,1.55-1.64,1.55S35,35,34.69,35c-.77,0-.92.63-1.69.63-1.5,0-1.4-.77-2.37-.77s-1,.44-1.69.44-1.45-1.26-1.35-2c0-1.35,2.8-3.77,2.8-5.12S28.46,24.81,25,24.81s-4.54,2.18-4.54,3,1,2.95,4.54,2.95c1.69,0,3.19-.61,3.53-.29s-2.13,1-3.58,1-5.12-.72-5.12-3.72,1.35-4.4,4.21-4.4a24.81,24.81,0,0,1,4,.34c1.69,0,3.06-.94,4.65-.94"/><path class="cls-3" d="M40.59,25c-2.38,0-5.22,1.39-5.22,2.9S37.54,30,40.59,30s4.16-1.8,4.16-2.95-2.56-2-4.16-2m-.1,4.54c-2.71,0-4.59-.6-4.59-1.64s2.11-2.42,4.59-2.42c.92,0,3.82.42,3.82,1.55s-1.11,2.51-3.82,2.51"/><path class="cls-3" d="M40.42,25.85c-2.92,0-4.21,1.29-4.21,2s2.13,1.23,4.21,1.23,3.48-.92,3.48-1.89-2.39-1.35-3.48-1.35m0,2.78c-1.62,0-3.46-.41-3.46-.87s.56-1.52,3.46-1.52c1.21,0,2.92.43,2.92,1.06s-1.31,1.33-2.92,1.33"/><path class="cls-3" d="M40.18,26.75c1.18,0,2.37.36,2.39.69s-1,.83-2.39.83-2.3-.39-2.3-.75,1.12-.77,2.3-.77"/><path class="cls-3" d="M20.77,27.42c0,1.14,1.11,2.95,4.16,2.95s5.22-.57,5.22-2.08-2.84-2.9-5.22-2.9c-1.6,0-4.16.89-4.16,2m.43,0c0-1.13,2.9-1.55,3.82-1.55,2.48,0,4.59,1.38,4.59,2.42S27.73,29.94,25,29.94s-3.82-1.38-3.82-2.51"/><path class="cls-3" d="M21.62,27.59c0,1,1.4,1.89,3.48,1.89S29.3,29,29.3,28.25s-1.28-2-4.21-2c-1.09,0-3.48.39-3.48,1.35m.53.1c0-.63,1.72-1.06,2.92-1.06,2.9,0,3.46,1.06,3.46,1.52s-1.84.87-3.46.87-2.92-.7-2.92-1.33"/><path class="cls-3" d="M25.34,27.13c-1.18,0-2.37.36-2.39.69s1,.83,2.39.83,2.3-.39,2.3-.75-1.12-.77-2.3-.77"/><path class="cls-3" d="M34.35,22.2S44.5,22,45,22.54s.41,1.21.19,1.16a6.33,6.33,0,0,0-2.92-.77c-1.91-.07-4,.29-5,.24s-2.95-.39-2.92-1"/><path class="cls-3" d="M31.23,22.45s-10.15-.24-10.63.34-.41,1.21-.19,1.16a6.34,6.34,0,0,1,2.92-.77c1.91-.07,4,.29,5,.24s2.95-.39,2.92-1"/><path class="cls-3" d="M37.18,45.43s-.89,4.45-1.09,5.85a1.56,1.56,0,0,1-.14.48q-.68.12-1.38.18c.28-1.25.88-4.75,1.07-6,.22-1.45-.51-2-2.68-2s-2.73.92-2.58,2.06c.12,1,1.38,4.8,1.77,6l-1-.06c-.62-1.42-2-4.6-2.46-6.17-.63-2.05.8-3.24,4.54-3.24,5.87,0,4,2.88,4,2.88"/><path class="cls-3" d="M37,35.64c-1.23,0-2.6.61-4.27.61s-2.88-.26-4-.26-4.7.16-4.7,3.58,3.8,4.7,4.16,4.37-1.61-1.15-1.42-1.24,1,.16,1.42.16A34.73,34.73,0,0,1,33,41.93a27.93,27.93,0,0,1,4.2.63c.52,0,2-.37,2.22-.15s-1.8.9-1.26,1.45,4.06-1.64,4.06-4.9-4-3.32-5.23-3.32m1.39,5.86c-1.32,0-4.17-.29-5.82-.29s-4.39.55-5.26.52a2.21,2.21,0,0,1-1.89-1.91c0-.86-.15-2.31,3.3-2.31h3.84c2.31,0,4.83-.42,5.73-.32s2.8.1,2.8,2-1.39,2.35-2.71,2.35"/><path class="cls-3" d="M34.25,16.36a1.57,1.57,0,0,0,.55-1.15c0-1-1.11-1.84-2.48-1.84s-2.48.82-2.48,1.84a1.57,1.57,0,0,0,.55,1.15,2.81,2.81,0,0,0-1.49,2.39,3.19,3.19,0,0,0,3.42,2.9,3.19,3.19,0,0,0,3.42-2.9,2.81,2.81,0,0,0-1.49-2.39m-1.34-.24a.77.77,0,0,0,.33-.08,1.13,1.13,0,1,1,0-1.41.77.77,0,0,0-.33-.08.78.78,0,0,0,0,1.56"/><path class="cls-3" d="M36.45,14.37c1.29,0,2,.45,2,.81s-1.51.93-1.51,2.8,1.26,2.77,1.26,3.22-.66.45-1.39.45-1.25-.16-1.25-.52a6.35,6.35,0,0,0,.9-3.13c0-1.35-1.32-1.71-1.27-2.35s-.08-1.29,1.27-1.29"/><path class="cls-3" d="M28.57,14.37c-1.29,0-2,.45-2,.81s1.51.93,1.51,2.8-1.26,2.77-1.26,3.22.66.45,1.39.45,1.25-.16,1.25-.52a6.35,6.35,0,0,1-.9-3.13c0-1.35,1.32-1.71,1.27-2.35s.08-1.29-1.27-1.29"/><path class="cls-3" d="M40.18,15.47A2.84,2.84,0,1,0,43,18.3a2.84,2.84,0,0,0-2.84-2.84m.59,4a1.19,1.19,0,0,0,.62-.18,1.59,1.59,0,1,1,.22-1.86,1.19,1.19,0,1,0-.84,2"/><path class="cls-3" d="M24.8,15.86a2.84,2.84,0,1,0,2.84,2.84,2.84,2.84,0,0,0-2.84-2.84m.59,4a1.18,1.18,0,0,0,.62-.18,1.59,1.59,0,1,1,.22-1.86,1.19,1.19,0,1,0-.84,2"/><path class="cls-3" d="M21.6,18.59l.46,2.58a.39.39,0,0,1-.4.46l-2.81-.09a.39.39,0,0,1-.32-.61A9.9,9.9,0,0,1,21,18.34a.4.4,0,0,1,.62.25"/><path class="cls-3" d="M44.48,18c.63.58,1.64,1.54,2.3,2.25a.47.47,0,0,1-.29.78,25.31,25.31,0,0,1-2.89.08.47.47,0,0,1-.44-.58l.56-2.3a.47.47,0,0,1,.77-.23"/><path class="cls-3" d="M34,47.33a8.43,8.43,0,0,0-1.34.1c-.4,0-.82.12-.9.59-.14.84.79.9,1.52.88a3.72,3.72,0,0,0,.72,0h0l.26-.06A.76.76,0,0,0,34,47.33"/><path class="cls-3" d="M34.29,49.45a9.89,9.89,0,0,1-1.58-.07.49.49,0,0,0-.48.48.69.69,0,0,0,.42.55,3.34,3.34,0,0,0,1.61,0l.12,0c.53-.11.5-1-.09-1"/><path class="cls-3" d="M34.1,51.24a.46.46,0,0,0-.23-.35.8.8,0,0,0-.83,0,.69.69,0,0,0-.14.12l-.06.09a.49.49,0,0,0,.17.66.77.77,0,0,0,.95-.13.49.49,0,0,0,.13-.41"/><path class="cls-3" d="M33.2,46.1a1,1,0,0,0-.66-.88.35.35,0,0,0-.19,0l0,0a.8.8,0,0,0-.92.37.87.87,0,0,0,0,.79.79.79,0,0,0,.42.64,1,1,0,0,0,.64.1h.14a.63.63,0,0,0,.45-.34.92.92,0,0,0,.2-.63"/><path class="cls-3" d="M35.19,45.8A.78.78,0,0,0,34,45.29l-.05,0-.16.06a.82.82,0,0,0-.41.55A.92.92,0,0,0,34.33,47a1,1,0,0,0,.86-1.22"/><path class="cls-3" d="M46.92,23.62c-.14-.61-1.08-.35-.93.26a42.86,42.86,0,0,1,1.07,7.32c0,.62,1,.62,1,0a44.41,44.41,0,0,0-1.11-7.58"/><path class="cls-3" d="M48.38,23.61c-.18-.59-1.12-.34-.93.26a37.12,37.12,0,0,1,1.1,7.32c.06.61,1,.62,1,0a38.48,38.48,0,0,0-1.14-7.58"/><path class="cls-3" d="M49.61,23.77c-.24-.57-1.07-.08-.83.49A15.66,15.66,0,0,1,50,31.45c0,.62.93.62,1,0a16.7,16.7,0,0,0-1.32-7.68"/><path class="cls-3" d="M18.6,24.13c.14-.61,1.08-.35.93.26a42.86,42.86,0,0,0-1.07,7.32c0,.62-1,.62-1,0a44.42,44.42,0,0,1,1.11-7.58"/><path class="cls-3" d="M17.14,24.13c.18-.59,1.12-.34.93.26A37.11,37.11,0,0,0,17,31.71c-.06.61-1,.62-1,0a38.48,38.48,0,0,1,1.14-7.58"/><path class="cls-3" d="M15.91,24.29c.24-.57,1.07-.08.83.49A15.66,15.66,0,0,0,15.56,32c0,.62-.93.62-1,0a16.7,16.7,0,0,1,1.32-7.68"/><path class="cls-3" d="M38.45,32.17c0-.6,2.07-.29,3-.51,2.47-.42,3.67-2.18,4.18-1.94s.41,1.73,0,2.19-2,1.12-2,2.25-.35,2.42-.24,2.68a2.61,2.61,0,0,1,.53,1.6c0,.89-.51,1.44-.76,1.37s-.83-.21-.66-1.81A14,14,0,0,1,42,35.64c0-.73.17-2-.63-2.18s-2.86.45-3-1.3"/><path class="cls-3" d="M38.45,34c.12-.44,1.78-.22,2-.22s1.22-.07,1.14,1S41.24,36,41,36a16.3,16.3,0,0,0-1.64-.56c-.39,0-1.24-.07-.89-1.43"/><path class="cls-3" d="M25.87,34.12c.48-.27,1.06-.56,1.43,0s.75,1.47.34,1.52a5.42,5.42,0,0,0-1.52.24c-.24.17-1.4,1.09-1.52.27s0-1.67.46-1.64a1.24,1.24,0,0,0,.82-.39"/><path class="cls-3" d="M26.89,31.74c-1.76.4-4.64.52-5.91-1a.66.66,0,0,0-.91.35,1.67,1.67,0,0,0,.58,1.63,6.29,6.29,0,0,0,1,.76,2.38,2.38,0,0,1,.49.42c0,1.33,1,2.57.36,3.9a.52.52,0,0,0,0,.13.5.5,0,0,0,0,.14,3,3,0,0,0,.24,1.16,1.6,1.6,0,0,0,.27.5c.3.36,1,0,.81-.47a3.77,3.77,0,0,1-.23-.67,2.61,2.61,0,0,1,.2-.93l.07-.12c.18-.24.43-.31.53-.62.24-.7-.43-1.18-.46-1.87a.91.91,0,0,1,.77-1.1,9,9,0,0,0,.91-.1,6.06,6.06,0,0,0,1.75-1.18.49.49,0,0,0-.37-.88"/><path class="cls-3" d="M21.38,34.06a3.44,3.44,0,0,0-2.93-1.2c-3.21,0-3.9,2.84-3.89,5.53a.48.48,0,0,0,1,0c0-2.12.29-4.56,2.92-4.57a2.25,2.25,0,0,1,2.41,1.34,7.84,7.84,0,0,1,.41,2.72.48.48,0,0,0,1,0,6.81,6.81,0,0,0-.86-3.83"/><path class="cls-3" d="M17.81,34.24c-2.6.37-2.28,4.11-1.74,5.9a.48.48,0,0,0,.93-.26c-.38-1.27-.91-4.59,1.16-4.7s2.1,2.83,2,4.26c0,.62.94.62,1,0,.09-2.19-.37-5.64-3.35-5.21"/><path class="cls-3" d="M19.59,36.9c-.22-.44-.49-1-1-1.13a.82.82,0,0,0-.5,0l-.12.05c-1.11.66-1.25,2.19-.94,3.34.25.92,1.22,2.2,2.16,1.22a2.91,2.91,0,0,0,.41-3.54"/><path class="cls-3" d="M50.46,34.07a3.18,3.18,0,0,0-2.8-1.35C45,32.54,43.82,35,43.87,37.37a.48.48,0,0,0,1,0c0-1.86.69-3.89,2.93-3.67a2.13,2.13,0,0,1,2.1,1.35,7.6,7.6,0,0,1,.39,2.58c0,.62,1,.62,1,0a7.24,7.24,0,0,0-.76-3.56"/><path class="cls-3" d="M48.35,34.21c-2.5-.83-3.34,2.08-3.41,3.95,0,.62.94.62,1,0a5.69,5.69,0,0,1,.49-2.36,1.36,1.36,0,0,1,2.16-.33c.89.87.75,2.93.38,4-.21.59.73.84.93.26.6-1.68.54-4.82-1.52-5.51"/><path class="cls-3" d="M48.91,36.71a2.13,2.13,0,0,0-.18-.53.46.46,0,0,0-.17-.3.45.45,0,0,0-.43-.3c-2.07,0-2.69,3.71-1,4.6.87.44,1.48-.67,1.72-1.34a3.46,3.46,0,0,0,0-2.13"/><path class="cls-3" d="M43.56,40.81a13.35,13.35,0,0,1-5,3.71c-.56.28-.07,1.11.49.83a14.24,14.24,0,0,0,5.35-4.06c.37-.5-.47-1-.83-.49"/><path class="cls-3" d="M44.61,42.46c-.5.18-.69.51-1.06.88a8.32,8.32,0,0,1-1.76,1.27c-1.39.83-2.84,1.54-4.28,2.28a.41.41,0,0,0-.24.41.51.51,0,0,0,.6.58,11.09,11.09,0,0,0,4.2-1.76,8,8,0,0,0,3.07-3c.16-.34-.11-.86-.55-.71"/><path class="cls-3" d="M28.1,44.94c-1.86-.84-4.22-1.84-5.18-3.76-.28-.56-1.11-.07-.83.49,1,2.09,3.5,3.2,5.53,4.11.56.25,1.06-.58.49-.83"/><path class="cls-3" d="M29,47.42c-.64-.95-2.09-1.4-3-1.92A23.29,23.29,0,0,1,22,42.87a.51.51,0,0,0-.19-.1.46.46,0,0,0-.66.3c-.21.81.36,1.25.93,1.75a22.32,22.32,0,0,0,2.46,1.85A10.69,10.69,0,0,0,27.25,48c.55.17,1.3.45,1.71-.09a.47.47,0,0,0,0-.49"/><path class="cls-3" d="M29.5,49.27c-.31-.37-.82-.36-1.25-.45s-1-.55-1.55-.66a.51.51,0,0,0-.19,0h0l-.08,0-.13.06a.43.43,0,0,0-.28.17,1.23,1.23,0,0,0-.49,1.5c.21.44.89.58,1.3.73a4.51,4.51,0,0,0,1.84.49,1.2,1.2,0,0,0,.84-1.87"/><path class="cls-3" d="M25.44,47.74c-.24-.52-.73-.64-1.19-.9s-.87-.68-1.46-.44l-.05,0a.45.45,0,0,0-.22.19l-.09.16-.08.1a.7.7,0,0,0-.07.17l-.07.13h0a1.09,1.09,0,0,0,.09,1.23,1,1,0,0,0,.62.3,2.71,2.71,0,0,1,.77.35,1.23,1.23,0,0,0,1.39-.1,1,1,0,0,0,.36-1.25"/><path class="cls-3" d="M21.24,44.43a.52.52,0,0,0-.63,0l-.12.06c-.49.33-1.39.8-1.08,1.53a2.63,2.63,0,0,0,.74.83,1.53,1.53,0,0,0,.92.45A1.37,1.37,0,0,0,22.38,46c0-.68-.65-1.23-1.14-1.61"/><path class="cls-3" d="M40.27,48.21A.69.69,0,0,0,39.6,48a.47.47,0,0,0-.3,0,5,5,0,0,0-1.55.78,1.17,1.17,0,0,0-.6,1.06,1,1,0,0,0,.9,1,3.12,3.12,0,0,0,1.5-.48c.44-.21.9-.39,1-.91a1.43,1.43,0,0,0-.29-1.22"/><path class="cls-3" d="M44.07,47a2.85,2.85,0,0,1-.36-.57.78.78,0,0,0-.34-.42.92.92,0,0,0-1,.21,9,9,0,0,1-1.4.88,1,1,0,0,0-.35.4,1.33,1.33,0,0,0,.27,1.14c.23.32.44.71.89.7a3.66,3.66,0,0,0,1.32-.5A2.28,2.28,0,0,0,44,48a.89.89,0,0,0,0-1"/><path class="cls-3" d="M45.56,44.33c-.76-.07-1.21.57-1.7,1.05a.43.43,0,0,0-.13.44v.09a.48.48,0,0,0,.09.28.45.45,0,0,0,.05.11c.41.6,1,1,1.64.52a3.24,3.24,0,0,0,.71-.69c.18-.23.48-.39.56-.69.21-.75-.65-1.06-1.22-1.11"/><path class="cls-3" d="M20.59,41.23a.47.47,0,0,0-.47-.42.84.84,0,0,0-.34.09.74.74,0,0,0-.24.24.49.49,0,0,0,.17.66.77.77,0,0,0,.45.11.52.52,0,0,0,.34-.14.49.49,0,0,0,.14-.34.54.54,0,0,0-.06-.21"/><path class="cls-3" d="M20.68,42.31a.52.52,0,0,0-.19-.06.68.68,0,0,0-.23-.07.87.87,0,0,0-.75.17.62.62,0,0,0,.14.94.85.85,0,0,0,1.2-.32.49.49,0,0,0-.17-.66"/><path class="cls-3" d="M18.29,41.31a1.11,1.11,0,0,0-.43,0,.54.54,0,0,0-.48.46.57.57,0,0,0,.27.56.64.64,0,0,0,.54,0,.56.56,0,0,0,.25-.18.43.43,0,0,0,.19-.26.49.49,0,0,0-.34-.59"/><path class="cls-3" d="M18.8,42.88c-.28-.52-1-.35-1.44-.16a.48.48,0,0,0,.06.86.47.47,0,0,0,.35.16,2.52,2.52,0,0,0,.67,0,.58.58,0,0,0,.36-.83"/><path class="cls-3" d="M19.56,43.88a.48.48,0,0,0,0,1,.48.48,0,0,0,0-1"/><path class="cls-3" d="M46.57,40.22h0l-.07,0a.93.93,0,0,0-1,.34.6.6,0,0,0,0,.62.78.78,0,0,0,.45.33.82.82,0,0,0,1-.29.66.66,0,0,0-.35-1"/><path class="cls-3" d="M48.33,40.64a.78.78,0,0,0-.52-.07.48.48,0,0,0,.13.94.47.47,0,0,0,.56-.21.49.49,0,0,0-.17-.66"/><path class="cls-3" d="M47.05,41.94h0l-.1,0a.93.93,0,0,0-.93.29.57.57,0,0,0,0,.73.78.78,0,0,0,.45.21.88.88,0,0,0,1-.27.61.61,0,0,0-.35-.92"/><path class="cls-3" d="M48.32,42.14a.48.48,0,0,0,0,1,.48.48,0,0,0,0-1"/><path class="cls-3" d="M28.1,38.69v0a.51.51,0,0,0-.46-.34,1.79,1.79,0,0,0-1,.19.49.49,0,0,0,0,.83,1.46,1.46,0,0,0,1.29,0,.49.49,0,0,0,.17-.66"/><path class="cls-3" d="M29.72,38.23a2.88,2.88,0,0,0-.8,0,.49.49,0,0,0-.48.48,1.61,1.61,0,0,0,.2.56.69.69,0,0,0,.5.17,1,1,0,0,0,.87-.25.58.58,0,0,0-.28-.93"/><path class="cls-3" d="M32.05,38.69c-.08-.62-.95-.62-1.36-.38a.5.5,0,0,0-.24.42.48.48,0,0,0,.34.56,2.5,2.5,0,0,0,.68.05.59.59,0,0,0,.58-.65"/><path class="cls-3" d="M33.91,38.32a1.74,1.74,0,0,0-1.11-.06.49.49,0,0,0,0,.94.55.55,0,0,0,.26.09,4,4,0,0,0,.69,0,.48.48,0,0,0,.13-.95"/><path class="cls-3" d="M36.46,38.15a1.69,1.69,0,0,0-1.27,0,.48.48,0,0,0,0,.93.5.5,0,0,0,.29.1c.46,0,1,.05,1.2-.47a.48.48,0,0,0-.22-.55"/><path class="cls-3" d="M38.22,38a5.3,5.3,0,0,0-.58,0,.5.5,0,0,0-.48.43l0,0a.5.5,0,0,0,.34.59c.42.17,1.2.14,1.32-.4a.59.59,0,0,0-.58-.71"/><path class="cls-3" d="M40.2,38.29a.49.49,0,0,0-.34-.14h-.07a.55.55,0,0,0-.39.06.56.56,0,0,0-.24.71.61.61,0,0,0,.71.34.66.66,0,0,0,.35-.27.77.77,0,0,0,.12-.37.48.48,0,0,0-.14-.34"/><path class="cls-3" d="M40.08,39.78a.44.44,0,0,0-.38-.14.51.51,0,0,0-.44.13.6.6,0,0,0,.33,1,.59.59,0,0,0,.58-.3.61.61,0,0,0-.09-.71"/><path class="cls-3" d="M38.83,40a.88.88,0,0,0-.83-.58.61.61,0,0,0-.72.7.74.74,0,0,0,.13.48.67.67,0,0,0,.52.25.85.85,0,0,0,.86-.41.63.63,0,0,0,.05-.23.37.37,0,0,0,0-.21"/><path class="cls-3" d="M36.22,39.5h0l-.17,0c-.41,0-1,.1-1.09.56s.36.82.8.83.84,0,1.07-.37a.65.65,0,0,0-.58-1"/><path class="cls-3" d="M34.6,40.17a.51.51,0,0,0-.35-.48c-.51-.19-1.74-.33-1.85.45s1.24.69,1.74.65a.5.5,0,0,0,.48-.48.45.45,0,0,0,0-.14"/><polyline class="cls-4" points="31.29 39.95 31.29 39.95 31.29 39.95 31.29 39.95 31.29 39.95"/><path class="cls-3" d="M31.75,39.68a1.63,1.63,0,0,0-.77,0,.62.62,0,0,0-.44.83.78.78,0,0,0,.69.43,1,1,0,0,0,.69-.25.42.42,0,0,0,.14-.34l0-.05a.49.49,0,0,0-.34-.59"/><path class="cls-3" d="M30,40c-.43-.24-1.28-.36-1.44.27A.64.64,0,0,0,29,41a1.41,1.41,0,0,0,.8,0,.5.5,0,0,0,.32-.29l0-.06A.49.49,0,0,0,30,40"/><path class="cls-3" d="M28.21,40.4a.42.42,0,0,0-.05-.12.48.48,0,0,0-.35-.4,1.1,1.1,0,0,0-.85,0,.62.62,0,0,0-.19.92.9.9,0,0,0,.78.29.68.68,0,0,0,.5-.16.57.57,0,0,0,.16-.57"/></g></g></svg>