<?xml version="1.0" encoding="utf-8"?>
<!-- Generator: Adobe Illustrator 21.1.0, SVG Export Plug-In . SVG Version: 6.00 Build 0)  -->
<svg version="1.1" id="Capa_1" xmlns="http://www.w3.org/2000/svg" xmlns:xlink="http://www.w3.org/1999/xlink" x="0px" y="0px"
	 viewBox="0 0 512 512" style="enable-background:new 0 0 512 512;" xml:space="preserve">
<style type="text/css">
	.st0{fill:#FFFFFF;}
	.st1{fill:#DCDCDC;}
</style>
<g>
	<g>
		<path class="st0" d="M256.1,86.3c-31.5,0-57.2,25.7-57.2,57.2s25.7,57.2,57.2,57.2c31.5,0,57.2-25.7,57.2-57.2
			C313.3,112,287.7,86.3,256.1,86.3z M256.1,168.3c-13.7,0-24.8-11.1-24.8-24.8s11.1-24.8,24.8-24.8c13.7,0,24.8,11.1,24.8,24.8
			S269.8,168.3,256.1,168.3z"/>
	</g>
</g>
<g>
	<g>
		<path class="st1" d="M192.6,80c6.3-6.3,6.3-16.6,0-22.9c-6.3-6.3-16.6-6.3-22.9,0c-47.7,47.7-47.7,125.2,0,172.9
			c3.2,3.2,7.3,4.7,11.4,4.7c4.1,0,8.3-1.6,11.4-4.7c6.3-6.3,6.3-16.6,0-22.9C157.5,172,157.5,115,192.6,80z"/>
	</g>
</g>
<g>
	<g>
		<path class="st1" d="M342.6,57.1c-6.3-6.3-16.6-6.3-22.9,0s-6.3,16.6,0,22.9c17,17,26.4,39.6,26.4,63.5s-9.4,46.5-26.4,63.5
			c-6.3,6.3-6.3,16.6,0,22.9c3.2,3.2,7.3,4.7,11.4,4.7c4.1,0,8.3-1.6,11.4-4.7c23.1-23.1,35.9-53.8,35.9-86.4
			C378.5,110.9,365.7,80.2,342.6,57.1z"/>
	</g>
</g>
<g>
	<g>
		<path class="st1" d="M92,143.8c0-43.8,17.1-85,48.3-116.2c6.3-6.3,6.3-16.6,0-22.9c-6.3-6.3-16.6-6.3-22.9,0
			C80.1,42,59.6,91.4,59.6,143.8c0,52.4,20.5,101.8,57.7,139c3.2,3.2,7.3,4.7,11.4,4.7c4.1,0,8.3-1.6,11.4-4.7
			c6.3-6.3,6.3-16.6,0-22.9C109.1,228.8,92,187.6,92,143.8z"/>
	</g>
</g>
<g>
	<g>
		<path class="st1" d="M394.9,4.7c-6.3-6.3-16.6-6.3-22.9,0c-6.3,6.3-6.3,16.6,0,22.9c64,64,64,168.3,0,232.3
			c-6.3,6.3-6.3,16.6,0,22.9c3.2,3.2,7.3,4.7,11.4,4.7s8.3-1.6,11.4-4.7C471.6,206.1,471.6,81.4,394.9,4.7z"/>
	</g>
</g>
<g>
	<g>
		
			<rect x="270.9" y="254.4" transform="matrix(0.7138 -0.7003 0.7003 0.7138 -179.8876 308.1427)" class="st1" width="32.4" height="239.6"/>
	</g>
</g>
<g>
	<g>
		
			<rect x="105.4" y="358" transform="matrix(0.7015 -0.7127 0.7127 0.7015 -199.397 272.3333)" class="st1" width="240" height="32.4"/>
	</g>
</g>
<g>
	<g>
		<path class="st0" d="M399.2,490.3L286.5,176.9c-3-8.4-12.3-12.8-20.7-9.7c-8.4,3-12.8,12.3-9.7,20.7l112.8,313.5
			c2.4,6.6,8.6,10.7,15.2,10.7c1.8,0,3.7-0.3,5.5-1C397.9,508,402.2,498.8,399.2,490.3z"/>
	</g>
</g>
<g>
	<g>
		<path class="st0" d="M247.1,167.1c-8.4-3-17.7,1.3-20.7,9.7L113,490.3c-3,8.4,1.3,17.7,9.7,20.7c1.8,0.7,3.7,1,5.5,1
			c6.6,0,12.8-4.1,15.2-10.7l113.3-313.5C259.8,179.4,255.5,170.2,247.1,167.1z"/>
	</g>
</g>
</svg>
